<svg width="20" height="20" viewBox="0 0 20 20" fill="none" xmlns="http://www.w3.org/2000/svg">
<g clip-path="url(#clip0_2_129)">
<path d="M18.5 1.80249C18.0249 1.40613 17.4676 1.12053 16.8684 0.966442C16.2692 0.812353 15.6432 0.793639 15.0358 0.911659L13.5658 1.27166C12.7987 1.41224 12.1051 1.81736 11.6059 2.41651C11.1066 3.01567 10.8332 3.77092 10.8333 4.55083V17.44C10.2807 17.5208 9.71928 17.5208 9.16667 17.44V4.55083C9.16943 3.77811 8.90237 3.02867 8.41157 2.43183C7.92078 1.83499 7.23703 1.4282 6.47833 1.28166L4.91667 0.901659C4.31596 0.791737 3.69844 0.815201 3.10781 0.970389C2.51718 1.12558 1.96789 1.4087 1.4988 1.7997C1.02972 2.19071 0.652322 2.68005 0.393318 3.23308C0.134315 3.78611 4.0677e-05 4.38932 0 4.99999L0 13.9942C4.78799e-05 14.9698 0.342481 15.9145 0.967611 16.6636C1.59274 17.4127 2.46092 17.9187 3.42083 18.0933L8.65917 19.0458C9.5458 19.2069 10.4542 19.2069 11.3408 19.0458L16.5833 18.0933C17.5425 17.9178 18.4097 17.4115 19.034 16.6625C19.6583 15.9135 20.0001 14.9692 20 13.9942V4.99999C20.0004 4.38953 19.8662 3.78649 19.6069 3.23382C19.3476 2.68115 18.9697 2.19244 18.5 1.80249Z" fill="white"/>
</g>
<defs>
<clipPath id="clip0_2_129">
<rect width="20" height="20" fill="white"/>
</clipPath>
</defs>
</svg>
