<svg width="20" height="20" viewBox="0 0 20 20" fill="none" xmlns="http://www.w3.org/2000/svg">
<path d="M17.2727 7.98989V5.28445C17.3118 3.91396 16.5685 2.58852 15.2055 1.59816C13.8425 0.607798 11.9708 0.0331643 10 0C8.02918 0.0331643 6.15749 0.607798 4.79451 1.59816C3.43152 2.58852 2.68823 3.91396 2.72727 5.28445V7.98989H0V18.7358C0 19.0711 0.191558 19.3926 0.532533 19.6297C0.873508 19.8668 1.33597 20 1.81818 20H18.1818C18.664 20 19.1265 19.8668 19.4675 19.6297C19.8084 19.3926 20 19.0711 20 18.7358V7.98989H17.2727ZM10.9091 14.4564V16.2073H9.09091V14.3995C8.64831 14.2411 8.29689 13.9823 8.09495 13.666C7.89301 13.3497 7.8527 12.9948 7.98071 12.6604C8.10871 12.3259 8.39733 12.032 8.79868 11.8273C9.20004 11.6226 9.68998 11.5194 10.1872 11.535C10.6845 11.5505 11.1591 11.6839 11.5324 11.9128C11.9057 12.1417 12.1552 12.4525 12.2395 12.7936C12.3237 13.1347 12.2378 13.4856 11.9958 13.7881C11.7538 14.0905 11.3704 14.3263 10.9091 14.4564ZM15.4545 7.98989H4.54545V5.28445C4.50626 4.2492 5.05796 3.24525 6.08001 2.49196C7.10206 1.73866 8.51137 1.29727 10 1.26422C11.4886 1.29727 12.8979 1.73866 13.92 2.49196C14.942 3.24525 15.4937 4.2492 15.4545 5.28445V7.98989Z" fill="white"/>
</svg>
