<svg width="17" height="15" viewBox="0 0 17 15" fill="none" xmlns="http://www.w3.org/2000/svg">
<path d="M1.875 12.1875H5.62499C6.37091 12.1875 7.08628 12.4838 7.61372 13.0113C8.14117 13.5387 8.43749 14.2541 8.43749 15V5.62501C8.43749 2.97376 8.43749 1.6472 7.61342 0.824077C6.7903 1.57004e-05 5.46374 1.5537e-05 2.81249 1.5537e-05H1.875C0.990936 1.5537e-05 0.549374 1.57548e-05 0.274687 0.274703C0 0.54939 0 0.990952 0 1.87501V10.3125C0 11.1966 0 11.6381 0.274687 11.9128C0.549374 12.1875 0.990936 12.1875 1.875 12.1875Z" fill="#50AFDE" fill-opacity="0.8"/>
<path d="M15 12.1875H12.1875C11.4416 12.1875 10.7262 12.4838 10.1988 13.0112C9.67131 13.5387 9.37499 14.2541 9.37499 15V5.62499C9.37499 2.97375 9.37499 1.64719 10.1991 0.824061C11.0222 1.86588e-07 12.3487 0 15 0C15.884 0 16.3256 2.17686e-07 16.6003 0.274687C16.875 0.549374 16.875 0.990936 16.875 1.875V10.3125C16.875 11.1965 16.875 11.6381 16.6003 11.9128C16.3256 12.1875 15.884 12.1875 15 12.1875ZM1.875 0.140625C1.875 0.103329 1.88982 0.0675602 1.91619 0.0411879C1.94256 0.0148157 1.97833 0 2.01563 0H4.54688C4.58417 0 4.61994 0.0148157 4.64631 0.0411879C4.67268 0.0675602 4.6875 0.103329 4.6875 0.140625V4.12124C4.68758 4.16766 4.67388 4.21306 4.64813 4.25167C4.62239 4.29029 4.58575 4.3204 4.54287 4.33817C4.5 4.35595 4.45281 4.36059 4.40729 4.35151C4.36177 4.34243 4.31997 4.32004 4.28719 4.28718L3.44719 3.44718C3.42542 3.42536 3.39955 3.40804 3.37108 3.39622C3.34261 3.38441 3.31208 3.37833 3.28125 3.37833C3.25042 3.37833 3.2199 3.38441 3.19142 3.39622C3.16295 3.40804 3.13709 3.42536 3.11531 3.44718L2.27532 4.28718C2.24254 4.32004 2.20074 4.34243 2.15522 4.35151C2.1097 4.36059 2.06251 4.35595 2.01963 4.33817C1.97675 4.3204 1.94012 4.29029 1.91437 4.25167C1.88862 4.21306 1.87492 4.16766 1.875 4.12124V0.140625Z" fill="#4178D4"/>
</svg>
