<svg width="20" height="20" viewBox="0 0 20 20" fill="none" xmlns="http://www.w3.org/2000/svg">
<g clip-path="url(#clip0_2_135)">
<path d="M20 7.06666V16.6667C20 16.8877 19.9122 17.0996 19.756 17.2559C19.5997 17.4122 19.3877 17.5 19.1667 17.5C18.9457 17.5 18.7337 17.4122 18.5775 17.2559C18.4212 17.0996 18.3334 16.8877 18.3334 16.6667V9.79333L12.1667 12.74C11.5165 13.1238 10.7742 13.3237 10.0192 13.3183C9.22742 13.3196 8.45002 13.1068 7.76921 12.7025L1.61921 9.77499C1.13578 9.51503 0.730723 9.13044 0.446066 8.66112C0.161408 8.19181 0.00752481 7.65487 0.000382541 7.10602C-0.00675973 6.55717 0.133099 6.01641 0.405448 5.53984C0.677796 5.06328 1.07271 4.66828 1.54921 4.39583C1.57171 4.38249 1.59588 4.36999 1.61921 4.35833L7.83338 1.39333C8.50427 1.00804 9.26568 0.808432 10.0393 0.815023C10.8129 0.821614 11.5708 1.03417 12.235 1.43083L18.3809 4.35833C18.8658 4.62664 19.2711 5.01857 19.5555 5.49427C19.8399 5.96996 19.9933 6.51247 20 7.06666ZM10.0184 14.9833C8.9522 14.9857 7.90432 14.7063 6.98088 14.1733L3.33338 12.4325V14.6825C3.33388 15.5721 3.61868 16.4383 4.14624 17.1546C4.67379 17.8708 5.41647 18.3998 6.26588 18.6642C7.47949 19.0126 8.7375 19.1819 10 19.1667C11.2628 19.1808 12.5208 19.0104 13.7342 18.6608C14.5836 18.3964 15.3263 17.8675 15.8539 17.1512C16.3814 16.4349 16.6662 15.5688 16.6667 14.6792V12.4367L12.9509 14.2117C12.0589 14.7241 11.0471 14.9909 10.0184 14.985V14.9833Z" fill="white"/>
</g>
<defs>
<clipPath id="clip0_2_135">
<rect width="20" height="20" fill="white"/>
</clipPath>
</defs>
</svg>
