<svg width="20" height="20" viewBox="0 0 20 20" fill="none" xmlns="http://www.w3.org/2000/svg">
<g clip-path="url(#clip0_2_141)">
<path d="M9.5 14.2632C8.36905 14.2632 7.40774 13.9408 6.61607 13.2961C5.8244 12.6513 5.42857 11.8684 5.42857 10.9474V4.31579C5.42857 3.39474 5.8244 2.61184 6.61607 1.96711C7.40774 1.32237 8.36905 1 9.5 1C10.631 1 11.5923 1.32237 12.3839 1.96711C13.1756 2.61184 13.5714 3.39474 13.5714 4.31579V10.9474C13.5714 11.8684 13.1756 12.6513 12.3839 13.2961C11.5923 13.9408 10.631 14.2632 9.5 14.2632ZM8.14286 22V18.6013C5.79048 18.3434 3.84524 17.4868 2.30714 16.0316C0.769047 14.5763 0 12.8816 0 10.9474H2.71429C2.71429 12.4763 3.37612 13.7798 4.69979 14.8578C6.02345 15.9358 7.62352 16.4744 9.5 16.4737C11.3774 16.4737 12.9779 15.9347 14.3016 14.8567C15.6252 13.7787 16.2866 12.4756 16.2857 10.9474H19C19 12.8816 18.231 14.5763 16.6929 16.0316C15.1548 17.4868 13.2095 18.3434 10.8571 18.6013V22H8.14286Z" fill="white"/>
</g>
<defs>
<clipPath id="clip0_2_141">
<rect width="20" height="20" fill="white"/>
</clipPath>
</defs>
</svg>
